<svg width="29" height="30" viewBox="0 0 29 30" fill="none" xmlns="http://www.w3.org/2000/svg">
<path d="M6.03137 7.71402L3.03137 11.714V25.714C3.03137 26.2445 3.24209 26.7532 3.61716 27.1282C3.99223 27.5033 4.50094 27.714 5.03137 27.714H19.0314C19.5618 27.714 20.0705 27.5033 20.4456 27.1282C20.8207 26.7532 21.0314 26.2445 21.0314 25.714V11.714L18.0314 7.71402H6.03137Z" stroke="#818AF9" stroke-width="2" stroke-linecap="round" stroke-linejoin="round"/>
<path d="M3.03137 11.714H21.0314" stroke="#818AF9" stroke-width="2" stroke-linecap="round" stroke-linejoin="round"/>
<path d="M16.0314 15.714C16.0314 16.7749 15.6099 17.7923 14.8598 18.5424C14.1097 19.2926 13.0922 19.714 12.0314 19.714C10.9705 19.714 9.95309 19.2926 9.20294 18.5424C8.4528 17.7923 8.03137 16.7749 8.03137 15.714" stroke="#818AF9" stroke-width="2" stroke-linecap="round" stroke-linejoin="round"/>
<circle cx="21.5314" cy="7.80727" r="6.5" fill="#EF6497"/>
<path d="M19.4679 10.344C20.7812 9.33735 21.6445 8.58735 22.0579 8.09402C22.4779 7.59402 22.6879 7.11069 22.6879 6.64402C22.6879 6.03069 22.3479 5.72402 21.6679 5.72402C21.1212 5.72402 20.4745 5.96402 19.7279 6.44402L19.2979 5.08402C19.6379 4.85735 20.0479 4.67402 20.5279 4.53402C21.0145 4.38735 21.4779 4.31402 21.9179 4.31402C22.7245 4.31402 23.3445 4.50735 23.7779 4.89402C24.2112 5.27402 24.4279 5.80402 24.4279 6.48402C24.4279 7.07069 24.2412 7.63402 23.8679 8.17402C23.5012 8.70735 22.7779 9.42402 21.6979 10.324V10.344H24.4679V11.714H19.4679V10.344Z" fill="white"/>
</svg>
